G04 #@! TF.GenerationSoftware,KiCad,Pcbnew,5.1.5+dfsg1-2build2*
G04 #@! TF.CreationDate,2022-08-29T15:20:26+03:00*
G04 #@! TF.ProjectId,eta3000_module,65746133-3030-4305-9f6d-6f64756c652e,rev?*
G04 #@! TF.SameCoordinates,Original*
G04 #@! TF.FileFunction,Copper,L2,Bot*
G04 #@! TF.FilePolarity,Positive*
%FSLAX46Y46*%
G04 Gerber Fmt 4.6, Leading zero omitted, Abs format (unit mm)*
G04 Created by KiCad (PCBNEW 5.1.5+dfsg1-2build2) date 2022-08-29 15:20:26*
%MOMM*%
%LPD*%
G04 APERTURE LIST*
%ADD10R,1.700000X1.700000*%
%ADD11C,0.800000*%
%ADD12C,0.500000*%
%ADD13C,0.254000*%
G04 APERTURE END LIST*
D10*
X63700000Y-51250000D03*
X63700000Y-55150000D03*
X63700000Y-59050000D03*
D11*
X54650000Y-59350000D03*
X51900000Y-55000000D03*
X51900000Y-59000000D03*
X51900000Y-51050000D03*
X55600000Y-57150000D03*
X60200000Y-58100000D03*
X57100000Y-52650000D03*
D12*
X54650000Y-57750000D02*
X51900000Y-55000000D01*
X54650000Y-59350000D02*
X54650000Y-57750000D01*
X60200000Y-55750000D02*
X57100000Y-52650000D01*
X60200000Y-58100000D02*
X60200000Y-55750000D01*
D13*
G36*
X65044000Y-60394000D02*
G01*
X50906000Y-60394000D01*
X50906000Y-54923078D01*
X51119000Y-54923078D01*
X51119000Y-55076922D01*
X51149013Y-55227809D01*
X51207887Y-55369942D01*
X51293358Y-55497859D01*
X51402141Y-55606642D01*
X51530058Y-55692113D01*
X51672191Y-55750987D01*
X51780079Y-55772447D01*
X54019001Y-58011370D01*
X54019000Y-58888595D01*
X53957887Y-58980058D01*
X53899013Y-59122191D01*
X53869000Y-59273078D01*
X53869000Y-59426922D01*
X53899013Y-59577809D01*
X53957887Y-59719942D01*
X54043358Y-59847859D01*
X54152141Y-59956642D01*
X54280058Y-60042113D01*
X54422191Y-60100987D01*
X54573078Y-60131000D01*
X54726922Y-60131000D01*
X54877809Y-60100987D01*
X55019942Y-60042113D01*
X55147859Y-59956642D01*
X55256642Y-59847859D01*
X55342113Y-59719942D01*
X55400987Y-59577809D01*
X55431000Y-59426922D01*
X55431000Y-59273078D01*
X55400987Y-59122191D01*
X55342113Y-58980058D01*
X55281000Y-58888595D01*
X55281000Y-57780987D01*
X55284052Y-57749999D01*
X55281000Y-57719011D01*
X55281000Y-57719002D01*
X55271870Y-57626302D01*
X55235789Y-57507358D01*
X55177196Y-57397739D01*
X55158295Y-57374708D01*
X55118103Y-57325734D01*
X55118101Y-57325732D01*
X55098343Y-57301657D01*
X55074268Y-57281899D01*
X52672447Y-54880079D01*
X52650987Y-54772191D01*
X52592113Y-54630058D01*
X52506642Y-54502141D01*
X52397859Y-54393358D01*
X52269942Y-54307887D01*
X52127809Y-54249013D01*
X51976922Y-54219000D01*
X51823078Y-54219000D01*
X51672191Y-54249013D01*
X51530058Y-54307887D01*
X51402141Y-54393358D01*
X51293358Y-54502141D01*
X51207887Y-54630058D01*
X51149013Y-54772191D01*
X51119000Y-54923078D01*
X50906000Y-54923078D01*
X50906000Y-52573078D01*
X56319000Y-52573078D01*
X56319000Y-52726922D01*
X56349013Y-52877809D01*
X56407887Y-53019942D01*
X56493358Y-53147859D01*
X56602141Y-53256642D01*
X56730058Y-53342113D01*
X56872191Y-53400987D01*
X56980079Y-53422447D01*
X59569001Y-56011370D01*
X59569000Y-57638595D01*
X59507887Y-57730058D01*
X59449013Y-57872191D01*
X59419000Y-58023078D01*
X59419000Y-58176922D01*
X59449013Y-58327809D01*
X59507887Y-58469942D01*
X59593358Y-58597859D01*
X59702141Y-58706642D01*
X59830058Y-58792113D01*
X59972191Y-58850987D01*
X60123078Y-58881000D01*
X60276922Y-58881000D01*
X60427809Y-58850987D01*
X60569942Y-58792113D01*
X60697859Y-58706642D01*
X60806642Y-58597859D01*
X60892113Y-58469942D01*
X60950987Y-58327809D01*
X60981000Y-58176922D01*
X60981000Y-58023078D01*
X60950987Y-57872191D01*
X60892113Y-57730058D01*
X60831000Y-57638595D01*
X60831000Y-55780987D01*
X60834052Y-55749999D01*
X60831000Y-55719011D01*
X60831000Y-55719002D01*
X60821870Y-55626302D01*
X60785789Y-55507358D01*
X60727196Y-55397739D01*
X60668103Y-55325734D01*
X60668101Y-55325732D01*
X60648343Y-55301657D01*
X60624268Y-55281899D01*
X59642369Y-54300000D01*
X62467157Y-54300000D01*
X62467157Y-56000000D01*
X62474513Y-56074689D01*
X62496299Y-56146508D01*
X62531678Y-56212696D01*
X62579289Y-56270711D01*
X62637304Y-56318322D01*
X62703492Y-56353701D01*
X62775311Y-56375487D01*
X62850000Y-56382843D01*
X64550000Y-56382843D01*
X64624689Y-56375487D01*
X64696508Y-56353701D01*
X64762696Y-56318322D01*
X64820711Y-56270711D01*
X64868322Y-56212696D01*
X64903701Y-56146508D01*
X64925487Y-56074689D01*
X64932843Y-56000000D01*
X64932843Y-54300000D01*
X64925487Y-54225311D01*
X64903701Y-54153492D01*
X64868322Y-54087304D01*
X64820711Y-54029289D01*
X64762696Y-53981678D01*
X64696508Y-53946299D01*
X64624689Y-53924513D01*
X64550000Y-53917157D01*
X62850000Y-53917157D01*
X62775311Y-53924513D01*
X62703492Y-53946299D01*
X62637304Y-53981678D01*
X62579289Y-54029289D01*
X62531678Y-54087304D01*
X62496299Y-54153492D01*
X62474513Y-54225311D01*
X62467157Y-54300000D01*
X59642369Y-54300000D01*
X57872447Y-52530079D01*
X57850987Y-52422191D01*
X57792113Y-52280058D01*
X57706642Y-52152141D01*
X57597859Y-52043358D01*
X57469942Y-51957887D01*
X57327809Y-51899013D01*
X57176922Y-51869000D01*
X57023078Y-51869000D01*
X56872191Y-51899013D01*
X56730058Y-51957887D01*
X56602141Y-52043358D01*
X56493358Y-52152141D01*
X56407887Y-52280058D01*
X56349013Y-52422191D01*
X56319000Y-52573078D01*
X50906000Y-52573078D01*
X50906000Y-50400000D01*
X62467157Y-50400000D01*
X62467157Y-52100000D01*
X62474513Y-52174689D01*
X62496299Y-52246508D01*
X62531678Y-52312696D01*
X62579289Y-52370711D01*
X62637304Y-52418322D01*
X62703492Y-52453701D01*
X62775311Y-52475487D01*
X62850000Y-52482843D01*
X64550000Y-52482843D01*
X64624689Y-52475487D01*
X64696508Y-52453701D01*
X64762696Y-52418322D01*
X64820711Y-52370711D01*
X64868322Y-52312696D01*
X64903701Y-52246508D01*
X64925487Y-52174689D01*
X64932843Y-52100000D01*
X64932843Y-50400000D01*
X64925487Y-50325311D01*
X64903701Y-50253492D01*
X64868322Y-50187304D01*
X64820711Y-50129289D01*
X64762696Y-50081678D01*
X64696508Y-50046299D01*
X64624689Y-50024513D01*
X64550000Y-50017157D01*
X62850000Y-50017157D01*
X62775311Y-50024513D01*
X62703492Y-50046299D01*
X62637304Y-50081678D01*
X62579289Y-50129289D01*
X62531678Y-50187304D01*
X62496299Y-50253492D01*
X62474513Y-50325311D01*
X62467157Y-50400000D01*
X50906000Y-50400000D01*
X50906000Y-49856000D01*
X65044001Y-49856000D01*
X65044000Y-60394000D01*
G37*
X65044000Y-60394000D02*
X50906000Y-60394000D01*
X50906000Y-54923078D01*
X51119000Y-54923078D01*
X51119000Y-55076922D01*
X51149013Y-55227809D01*
X51207887Y-55369942D01*
X51293358Y-55497859D01*
X51402141Y-55606642D01*
X51530058Y-55692113D01*
X51672191Y-55750987D01*
X51780079Y-55772447D01*
X54019001Y-58011370D01*
X54019000Y-58888595D01*
X53957887Y-58980058D01*
X53899013Y-59122191D01*
X53869000Y-59273078D01*
X53869000Y-59426922D01*
X53899013Y-59577809D01*
X53957887Y-59719942D01*
X54043358Y-59847859D01*
X54152141Y-59956642D01*
X54280058Y-60042113D01*
X54422191Y-60100987D01*
X54573078Y-60131000D01*
X54726922Y-60131000D01*
X54877809Y-60100987D01*
X55019942Y-60042113D01*
X55147859Y-59956642D01*
X55256642Y-59847859D01*
X55342113Y-59719942D01*
X55400987Y-59577809D01*
X55431000Y-59426922D01*
X55431000Y-59273078D01*
X55400987Y-59122191D01*
X55342113Y-58980058D01*
X55281000Y-58888595D01*
X55281000Y-57780987D01*
X55284052Y-57749999D01*
X55281000Y-57719011D01*
X55281000Y-57719002D01*
X55271870Y-57626302D01*
X55235789Y-57507358D01*
X55177196Y-57397739D01*
X55158295Y-57374708D01*
X55118103Y-57325734D01*
X55118101Y-57325732D01*
X55098343Y-57301657D01*
X55074268Y-57281899D01*
X52672447Y-54880079D01*
X52650987Y-54772191D01*
X52592113Y-54630058D01*
X52506642Y-54502141D01*
X52397859Y-54393358D01*
X52269942Y-54307887D01*
X52127809Y-54249013D01*
X51976922Y-54219000D01*
X51823078Y-54219000D01*
X51672191Y-54249013D01*
X51530058Y-54307887D01*
X51402141Y-54393358D01*
X51293358Y-54502141D01*
X51207887Y-54630058D01*
X51149013Y-54772191D01*
X51119000Y-54923078D01*
X50906000Y-54923078D01*
X50906000Y-52573078D01*
X56319000Y-52573078D01*
X56319000Y-52726922D01*
X56349013Y-52877809D01*
X56407887Y-53019942D01*
X56493358Y-53147859D01*
X56602141Y-53256642D01*
X56730058Y-53342113D01*
X56872191Y-53400987D01*
X56980079Y-53422447D01*
X59569001Y-56011370D01*
X59569000Y-57638595D01*
X59507887Y-57730058D01*
X59449013Y-57872191D01*
X59419000Y-58023078D01*
X59419000Y-58176922D01*
X59449013Y-58327809D01*
X59507887Y-58469942D01*
X59593358Y-58597859D01*
X59702141Y-58706642D01*
X59830058Y-58792113D01*
X59972191Y-58850987D01*
X60123078Y-58881000D01*
X60276922Y-58881000D01*
X60427809Y-58850987D01*
X60569942Y-58792113D01*
X60697859Y-58706642D01*
X60806642Y-58597859D01*
X60892113Y-58469942D01*
X60950987Y-58327809D01*
X60981000Y-58176922D01*
X60981000Y-58023078D01*
X60950987Y-57872191D01*
X60892113Y-57730058D01*
X60831000Y-57638595D01*
X60831000Y-55780987D01*
X60834052Y-55749999D01*
X60831000Y-55719011D01*
X60831000Y-55719002D01*
X60821870Y-55626302D01*
X60785789Y-55507358D01*
X60727196Y-55397739D01*
X60668103Y-55325734D01*
X60668101Y-55325732D01*
X60648343Y-55301657D01*
X60624268Y-55281899D01*
X59642369Y-54300000D01*
X62467157Y-54300000D01*
X62467157Y-56000000D01*
X62474513Y-56074689D01*
X62496299Y-56146508D01*
X62531678Y-56212696D01*
X62579289Y-56270711D01*
X62637304Y-56318322D01*
X62703492Y-56353701D01*
X62775311Y-56375487D01*
X62850000Y-56382843D01*
X64550000Y-56382843D01*
X64624689Y-56375487D01*
X64696508Y-56353701D01*
X64762696Y-56318322D01*
X64820711Y-56270711D01*
X64868322Y-56212696D01*
X64903701Y-56146508D01*
X64925487Y-56074689D01*
X64932843Y-56000000D01*
X64932843Y-54300000D01*
X64925487Y-54225311D01*
X64903701Y-54153492D01*
X64868322Y-54087304D01*
X64820711Y-54029289D01*
X64762696Y-53981678D01*
X64696508Y-53946299D01*
X64624689Y-53924513D01*
X64550000Y-53917157D01*
X62850000Y-53917157D01*
X62775311Y-53924513D01*
X62703492Y-53946299D01*
X62637304Y-53981678D01*
X62579289Y-54029289D01*
X62531678Y-54087304D01*
X62496299Y-54153492D01*
X62474513Y-54225311D01*
X62467157Y-54300000D01*
X59642369Y-54300000D01*
X57872447Y-52530079D01*
X57850987Y-52422191D01*
X57792113Y-52280058D01*
X57706642Y-52152141D01*
X57597859Y-52043358D01*
X57469942Y-51957887D01*
X57327809Y-51899013D01*
X57176922Y-51869000D01*
X57023078Y-51869000D01*
X56872191Y-51899013D01*
X56730058Y-51957887D01*
X56602141Y-52043358D01*
X56493358Y-52152141D01*
X56407887Y-52280058D01*
X56349013Y-52422191D01*
X56319000Y-52573078D01*
X50906000Y-52573078D01*
X50906000Y-50400000D01*
X62467157Y-50400000D01*
X62467157Y-52100000D01*
X62474513Y-52174689D01*
X62496299Y-52246508D01*
X62531678Y-52312696D01*
X62579289Y-52370711D01*
X62637304Y-52418322D01*
X62703492Y-52453701D01*
X62775311Y-52475487D01*
X62850000Y-52482843D01*
X64550000Y-52482843D01*
X64624689Y-52475487D01*
X64696508Y-52453701D01*
X64762696Y-52418322D01*
X64820711Y-52370711D01*
X64868322Y-52312696D01*
X64903701Y-52246508D01*
X64925487Y-52174689D01*
X64932843Y-52100000D01*
X64932843Y-50400000D01*
X64925487Y-50325311D01*
X64903701Y-50253492D01*
X64868322Y-50187304D01*
X64820711Y-50129289D01*
X64762696Y-50081678D01*
X64696508Y-50046299D01*
X64624689Y-50024513D01*
X64550000Y-50017157D01*
X62850000Y-50017157D01*
X62775311Y-50024513D01*
X62703492Y-50046299D01*
X62637304Y-50081678D01*
X62579289Y-50129289D01*
X62531678Y-50187304D01*
X62496299Y-50253492D01*
X62474513Y-50325311D01*
X62467157Y-50400000D01*
X50906000Y-50400000D01*
X50906000Y-49856000D01*
X65044001Y-49856000D01*
X65044000Y-60394000D01*
M02*
