G04 #@! TF.GenerationSoftware,KiCad,Pcbnew,5.1.5+dfsg1-2build2*
G04 #@! TF.CreationDate,2022-08-29T15:20:27+03:00*
G04 #@! TF.ProjectId,eta3000_module,65746133-3030-4305-9f6d-6f64756c652e,rev?*
G04 #@! TF.SameCoordinates,Original*
G04 #@! TF.FileFunction,Soldermask,Top*
G04 #@! TF.FilePolarity,Negative*
%FSLAX46Y46*%
G04 Gerber Fmt 4.6, Leading zero omitted, Abs format (unit mm)*
G04 Created by KiCad (PCBNEW 5.1.5+dfsg1-2build2) date 2022-08-29 15:20:27*
%MOMM*%
%LPD*%
G04 APERTURE LIST*
%ADD10C,0.100000*%
G04 APERTURE END LIST*
D10*
G36*
X64601000Y-59951000D02*
G01*
X62799000Y-59951000D01*
X62799000Y-58149000D01*
X64601000Y-58149000D01*
X64601000Y-59951000D01*
G37*
G36*
X59409468Y-57353565D02*
G01*
X59448138Y-57365296D01*
X59483777Y-57384346D01*
X59515017Y-57409983D01*
X59540654Y-57441223D01*
X59559704Y-57476862D01*
X59571435Y-57515532D01*
X59576000Y-57561888D01*
X59576000Y-58638112D01*
X59571435Y-58684468D01*
X59559704Y-58723138D01*
X59540654Y-58758777D01*
X59515017Y-58790017D01*
X59483777Y-58815654D01*
X59448138Y-58834704D01*
X59409468Y-58846435D01*
X59363112Y-58851000D01*
X58711888Y-58851000D01*
X58665532Y-58846435D01*
X58626862Y-58834704D01*
X58591223Y-58815654D01*
X58559983Y-58790017D01*
X58534346Y-58758777D01*
X58515296Y-58723138D01*
X58503565Y-58684468D01*
X58499000Y-58638112D01*
X58499000Y-57561888D01*
X58503565Y-57515532D01*
X58515296Y-57476862D01*
X58534346Y-57441223D01*
X58559983Y-57409983D01*
X58591223Y-57384346D01*
X58626862Y-57365296D01*
X58665532Y-57353565D01*
X58711888Y-57349000D01*
X59363112Y-57349000D01*
X59409468Y-57353565D01*
G37*
G36*
X54084468Y-57353565D02*
G01*
X54123138Y-57365296D01*
X54158777Y-57384346D01*
X54190017Y-57409983D01*
X54215654Y-57441223D01*
X54234704Y-57476862D01*
X54246435Y-57515532D01*
X54251000Y-57561888D01*
X54251000Y-58638112D01*
X54246435Y-58684468D01*
X54234704Y-58723138D01*
X54215654Y-58758777D01*
X54190017Y-58790017D01*
X54158777Y-58815654D01*
X54123138Y-58834704D01*
X54084468Y-58846435D01*
X54038112Y-58851000D01*
X53386888Y-58851000D01*
X53340532Y-58846435D01*
X53301862Y-58834704D01*
X53266223Y-58815654D01*
X53234983Y-58790017D01*
X53209346Y-58758777D01*
X53190296Y-58723138D01*
X53178565Y-58684468D01*
X53174000Y-58638112D01*
X53174000Y-57561888D01*
X53178565Y-57515532D01*
X53190296Y-57476862D01*
X53209346Y-57441223D01*
X53234983Y-57409983D01*
X53266223Y-57384346D01*
X53301862Y-57365296D01*
X53340532Y-57353565D01*
X53386888Y-57349000D01*
X54038112Y-57349000D01*
X54084468Y-57353565D01*
G37*
G36*
X55959468Y-57353565D02*
G01*
X55998138Y-57365296D01*
X56033777Y-57384346D01*
X56065017Y-57409983D01*
X56090654Y-57441223D01*
X56109704Y-57476862D01*
X56121435Y-57515532D01*
X56126000Y-57561888D01*
X56126000Y-58638112D01*
X56121435Y-58684468D01*
X56109704Y-58723138D01*
X56090654Y-58758777D01*
X56065017Y-58790017D01*
X56033777Y-58815654D01*
X55998138Y-58834704D01*
X55959468Y-58846435D01*
X55913112Y-58851000D01*
X55261888Y-58851000D01*
X55215532Y-58846435D01*
X55176862Y-58834704D01*
X55141223Y-58815654D01*
X55109983Y-58790017D01*
X55084346Y-58758777D01*
X55065296Y-58723138D01*
X55053565Y-58684468D01*
X55049000Y-58638112D01*
X55049000Y-57561888D01*
X55053565Y-57515532D01*
X55065296Y-57476862D01*
X55084346Y-57441223D01*
X55109983Y-57409983D01*
X55141223Y-57384346D01*
X55176862Y-57365296D01*
X55215532Y-57353565D01*
X55261888Y-57349000D01*
X55913112Y-57349000D01*
X55959468Y-57353565D01*
G37*
G36*
X57534468Y-57353565D02*
G01*
X57573138Y-57365296D01*
X57608777Y-57384346D01*
X57640017Y-57409983D01*
X57665654Y-57441223D01*
X57684704Y-57476862D01*
X57696435Y-57515532D01*
X57701000Y-57561888D01*
X57701000Y-58638112D01*
X57696435Y-58684468D01*
X57684704Y-58723138D01*
X57665654Y-58758777D01*
X57640017Y-58790017D01*
X57608777Y-58815654D01*
X57573138Y-58834704D01*
X57534468Y-58846435D01*
X57488112Y-58851000D01*
X56836888Y-58851000D01*
X56790532Y-58846435D01*
X56751862Y-58834704D01*
X56716223Y-58815654D01*
X56684983Y-58790017D01*
X56659346Y-58758777D01*
X56640296Y-58723138D01*
X56628565Y-58684468D01*
X56624000Y-58638112D01*
X56624000Y-57561888D01*
X56628565Y-57515532D01*
X56640296Y-57476862D01*
X56659346Y-57441223D01*
X56684983Y-57409983D01*
X56716223Y-57384346D01*
X56751862Y-57365296D01*
X56790532Y-57353565D01*
X56836888Y-57349000D01*
X57488112Y-57349000D01*
X57534468Y-57353565D01*
G37*
G36*
X52484468Y-57603565D02*
G01*
X52523138Y-57615296D01*
X52558777Y-57634346D01*
X52590017Y-57659983D01*
X52615654Y-57691223D01*
X52634704Y-57726862D01*
X52646435Y-57765532D01*
X52651000Y-57811888D01*
X52651000Y-58463112D01*
X52646435Y-58509468D01*
X52634704Y-58548138D01*
X52615654Y-58583777D01*
X52590017Y-58615017D01*
X52558777Y-58640654D01*
X52523138Y-58659704D01*
X52484468Y-58671435D01*
X52438112Y-58676000D01*
X51361888Y-58676000D01*
X51315532Y-58671435D01*
X51276862Y-58659704D01*
X51241223Y-58640654D01*
X51209983Y-58615017D01*
X51184346Y-58583777D01*
X51165296Y-58548138D01*
X51153565Y-58509468D01*
X51149000Y-58463112D01*
X51149000Y-57811888D01*
X51153565Y-57765532D01*
X51165296Y-57726862D01*
X51184346Y-57691223D01*
X51209983Y-57659983D01*
X51241223Y-57634346D01*
X51276862Y-57615296D01*
X51315532Y-57603565D01*
X51361888Y-57599000D01*
X52438112Y-57599000D01*
X52484468Y-57603565D01*
G37*
G36*
X56926000Y-56831000D02*
G01*
X54274000Y-56831000D01*
X54274000Y-55669000D01*
X56926000Y-55669000D01*
X56926000Y-56831000D01*
G37*
G36*
X52484468Y-55728565D02*
G01*
X52523138Y-55740296D01*
X52558777Y-55759346D01*
X52590017Y-55784983D01*
X52615654Y-55816223D01*
X52634704Y-55851862D01*
X52646435Y-55890532D01*
X52651000Y-55936888D01*
X52651000Y-56588112D01*
X52646435Y-56634468D01*
X52634704Y-56673138D01*
X52615654Y-56708777D01*
X52590017Y-56740017D01*
X52558777Y-56765654D01*
X52523138Y-56784704D01*
X52484468Y-56796435D01*
X52438112Y-56801000D01*
X51361888Y-56801000D01*
X51315532Y-56796435D01*
X51276862Y-56784704D01*
X51241223Y-56765654D01*
X51209983Y-56740017D01*
X51184346Y-56708777D01*
X51165296Y-56673138D01*
X51153565Y-56634468D01*
X51149000Y-56588112D01*
X51149000Y-55936888D01*
X51153565Y-55890532D01*
X51165296Y-55851862D01*
X51184346Y-55816223D01*
X51209983Y-55784983D01*
X51241223Y-55759346D01*
X51276862Y-55740296D01*
X51315532Y-55728565D01*
X51361888Y-55724000D01*
X52438112Y-55724000D01*
X52484468Y-55728565D01*
G37*
G36*
X64601000Y-56051000D02*
G01*
X62799000Y-56051000D01*
X62799000Y-54249000D01*
X64601000Y-54249000D01*
X64601000Y-56051000D01*
G37*
G36*
X61339192Y-54504646D02*
G01*
X61388414Y-54519578D01*
X61433778Y-54543826D01*
X61473542Y-54576458D01*
X61506174Y-54616222D01*
X61530422Y-54661586D01*
X61545354Y-54710808D01*
X61551000Y-54768140D01*
X61551000Y-55531860D01*
X61545354Y-55589192D01*
X61530422Y-55638414D01*
X61506174Y-55683778D01*
X61473542Y-55723542D01*
X61433778Y-55756174D01*
X61388414Y-55780422D01*
X61339192Y-55795354D01*
X61281860Y-55801000D01*
X58218140Y-55801000D01*
X58160808Y-55795354D01*
X58111586Y-55780422D01*
X58066222Y-55756174D01*
X58026458Y-55723542D01*
X57993826Y-55683778D01*
X57969578Y-55638414D01*
X57954646Y-55589192D01*
X57949000Y-55531860D01*
X57949000Y-54768140D01*
X57954646Y-54710808D01*
X57969578Y-54661586D01*
X57993826Y-54616222D01*
X58026458Y-54576458D01*
X58066222Y-54543826D01*
X58111586Y-54519578D01*
X58160808Y-54504646D01*
X58218140Y-54499000D01*
X61281860Y-54499000D01*
X61339192Y-54504646D01*
G37*
G36*
X56926000Y-54631000D02*
G01*
X54274000Y-54631000D01*
X54274000Y-53469000D01*
X56926000Y-53469000D01*
X56926000Y-54631000D01*
G37*
G36*
X52484468Y-53303565D02*
G01*
X52523138Y-53315296D01*
X52558777Y-53334346D01*
X52590017Y-53359983D01*
X52615654Y-53391223D01*
X52634704Y-53426862D01*
X52646435Y-53465532D01*
X52651000Y-53511888D01*
X52651000Y-54163112D01*
X52646435Y-54209468D01*
X52634704Y-54248138D01*
X52615654Y-54283777D01*
X52590017Y-54315017D01*
X52558777Y-54340654D01*
X52523138Y-54359704D01*
X52484468Y-54371435D01*
X52438112Y-54376000D01*
X51361888Y-54376000D01*
X51315532Y-54371435D01*
X51276862Y-54359704D01*
X51241223Y-54340654D01*
X51209983Y-54315017D01*
X51184346Y-54283777D01*
X51165296Y-54248138D01*
X51153565Y-54209468D01*
X51149000Y-54163112D01*
X51149000Y-53511888D01*
X51153565Y-53465532D01*
X51165296Y-53426862D01*
X51184346Y-53391223D01*
X51209983Y-53359983D01*
X51241223Y-53334346D01*
X51276862Y-53315296D01*
X51315532Y-53303565D01*
X51361888Y-53299000D01*
X52438112Y-53299000D01*
X52484468Y-53303565D01*
G37*
G36*
X61339192Y-52304646D02*
G01*
X61388414Y-52319578D01*
X61433778Y-52343826D01*
X61473542Y-52376458D01*
X61506174Y-52416222D01*
X61530422Y-52461586D01*
X61545354Y-52510808D01*
X61551000Y-52568140D01*
X61551000Y-53331860D01*
X61545354Y-53389192D01*
X61530422Y-53438414D01*
X61506174Y-53483778D01*
X61473542Y-53523542D01*
X61433778Y-53556174D01*
X61388414Y-53580422D01*
X61339192Y-53595354D01*
X61281860Y-53601000D01*
X58218140Y-53601000D01*
X58160808Y-53595354D01*
X58111586Y-53580422D01*
X58066222Y-53556174D01*
X58026458Y-53523542D01*
X57993826Y-53483778D01*
X57969578Y-53438414D01*
X57954646Y-53389192D01*
X57949000Y-53331860D01*
X57949000Y-52568140D01*
X57954646Y-52510808D01*
X57969578Y-52461586D01*
X57993826Y-52416222D01*
X58026458Y-52376458D01*
X58066222Y-52343826D01*
X58111586Y-52319578D01*
X58160808Y-52304646D01*
X58218140Y-52299000D01*
X61281860Y-52299000D01*
X61339192Y-52304646D01*
G37*
G36*
X54084468Y-51453565D02*
G01*
X54123138Y-51465296D01*
X54158777Y-51484346D01*
X54190017Y-51509983D01*
X54215654Y-51541223D01*
X54234704Y-51576862D01*
X54246435Y-51615532D01*
X54251000Y-51661888D01*
X54251000Y-52738112D01*
X54246435Y-52784468D01*
X54234704Y-52823138D01*
X54215654Y-52858777D01*
X54190017Y-52890017D01*
X54158777Y-52915654D01*
X54123138Y-52934704D01*
X54084468Y-52946435D01*
X54038112Y-52951000D01*
X53386888Y-52951000D01*
X53340532Y-52946435D01*
X53301862Y-52934704D01*
X53266223Y-52915654D01*
X53234983Y-52890017D01*
X53209346Y-52858777D01*
X53190296Y-52823138D01*
X53178565Y-52784468D01*
X53174000Y-52738112D01*
X53174000Y-51661888D01*
X53178565Y-51615532D01*
X53190296Y-51576862D01*
X53209346Y-51541223D01*
X53234983Y-51509983D01*
X53266223Y-51484346D01*
X53301862Y-51465296D01*
X53340532Y-51453565D01*
X53386888Y-51449000D01*
X54038112Y-51449000D01*
X54084468Y-51453565D01*
G37*
G36*
X55959468Y-51453565D02*
G01*
X55998138Y-51465296D01*
X56033777Y-51484346D01*
X56065017Y-51509983D01*
X56090654Y-51541223D01*
X56109704Y-51576862D01*
X56121435Y-51615532D01*
X56126000Y-51661888D01*
X56126000Y-52738112D01*
X56121435Y-52784468D01*
X56109704Y-52823138D01*
X56090654Y-52858777D01*
X56065017Y-52890017D01*
X56033777Y-52915654D01*
X55998138Y-52934704D01*
X55959468Y-52946435D01*
X55913112Y-52951000D01*
X55261888Y-52951000D01*
X55215532Y-52946435D01*
X55176862Y-52934704D01*
X55141223Y-52915654D01*
X55109983Y-52890017D01*
X55084346Y-52858777D01*
X55065296Y-52823138D01*
X55053565Y-52784468D01*
X55049000Y-52738112D01*
X55049000Y-51661888D01*
X55053565Y-51615532D01*
X55065296Y-51576862D01*
X55084346Y-51541223D01*
X55109983Y-51509983D01*
X55141223Y-51484346D01*
X55176862Y-51465296D01*
X55215532Y-51453565D01*
X55261888Y-51449000D01*
X55913112Y-51449000D01*
X55959468Y-51453565D01*
G37*
G36*
X52484468Y-51428565D02*
G01*
X52523138Y-51440296D01*
X52558777Y-51459346D01*
X52590017Y-51484983D01*
X52615654Y-51516223D01*
X52634704Y-51551862D01*
X52646435Y-51590532D01*
X52651000Y-51636888D01*
X52651000Y-52288112D01*
X52646435Y-52334468D01*
X52634704Y-52373138D01*
X52615654Y-52408777D01*
X52590017Y-52440017D01*
X52558777Y-52465654D01*
X52523138Y-52484704D01*
X52484468Y-52496435D01*
X52438112Y-52501000D01*
X51361888Y-52501000D01*
X51315532Y-52496435D01*
X51276862Y-52484704D01*
X51241223Y-52465654D01*
X51209983Y-52440017D01*
X51184346Y-52408777D01*
X51165296Y-52373138D01*
X51153565Y-52334468D01*
X51149000Y-52288112D01*
X51149000Y-51636888D01*
X51153565Y-51590532D01*
X51165296Y-51551862D01*
X51184346Y-51516223D01*
X51209983Y-51484983D01*
X51241223Y-51459346D01*
X51276862Y-51440296D01*
X51315532Y-51428565D01*
X51361888Y-51424000D01*
X52438112Y-51424000D01*
X52484468Y-51428565D01*
G37*
G36*
X64601000Y-52151000D02*
G01*
X62799000Y-52151000D01*
X62799000Y-50349000D01*
X64601000Y-50349000D01*
X64601000Y-52151000D01*
G37*
M02*
