G04 #@! TF.GenerationSoftware,KiCad,Pcbnew,5.1.5+dfsg1-2build2*
G04 #@! TF.CreationDate,2022-08-29T15:20:26+03:00*
G04 #@! TF.ProjectId,eta3000_module,65746133-3030-4305-9f6d-6f64756c652e,rev?*
G04 #@! TF.SameCoordinates,Original*
G04 #@! TF.FileFunction,Copper,L1,Top*
G04 #@! TF.FilePolarity,Positive*
%FSLAX46Y46*%
G04 Gerber Fmt 4.6, Leading zero omitted, Abs format (unit mm)*
G04 Created by KiCad (PCBNEW 5.1.5+dfsg1-2build2) date 2022-08-29 15:20:26*
%MOMM*%
%LPD*%
G04 APERTURE LIST*
%ADD10C,0.100000*%
%ADD11R,1.700000X1.700000*%
%ADD12R,0.650000X1.060000*%
%ADD13C,0.800000*%
%ADD14C,0.300000*%
%ADD15C,0.500000*%
%ADD16C,1.000000*%
%ADD17C,0.254000*%
G04 APERTURE END LIST*
G04 #@! TA.AperFunction,SMDPad,CuDef*
D10*
G36*
X52380142Y-53351174D02*
G01*
X52403803Y-53354684D01*
X52427007Y-53360496D01*
X52449529Y-53368554D01*
X52471153Y-53378782D01*
X52491670Y-53391079D01*
X52510883Y-53405329D01*
X52528607Y-53421393D01*
X52544671Y-53439117D01*
X52558921Y-53458330D01*
X52571218Y-53478847D01*
X52581446Y-53500471D01*
X52589504Y-53522993D01*
X52595316Y-53546197D01*
X52598826Y-53569858D01*
X52600000Y-53593750D01*
X52600000Y-54081250D01*
X52598826Y-54105142D01*
X52595316Y-54128803D01*
X52589504Y-54152007D01*
X52581446Y-54174529D01*
X52571218Y-54196153D01*
X52558921Y-54216670D01*
X52544671Y-54235883D01*
X52528607Y-54253607D01*
X52510883Y-54269671D01*
X52491670Y-54283921D01*
X52471153Y-54296218D01*
X52449529Y-54306446D01*
X52427007Y-54314504D01*
X52403803Y-54320316D01*
X52380142Y-54323826D01*
X52356250Y-54325000D01*
X51443750Y-54325000D01*
X51419858Y-54323826D01*
X51396197Y-54320316D01*
X51372993Y-54314504D01*
X51350471Y-54306446D01*
X51328847Y-54296218D01*
X51308330Y-54283921D01*
X51289117Y-54269671D01*
X51271393Y-54253607D01*
X51255329Y-54235883D01*
X51241079Y-54216670D01*
X51228782Y-54196153D01*
X51218554Y-54174529D01*
X51210496Y-54152007D01*
X51204684Y-54128803D01*
X51201174Y-54105142D01*
X51200000Y-54081250D01*
X51200000Y-53593750D01*
X51201174Y-53569858D01*
X51204684Y-53546197D01*
X51210496Y-53522993D01*
X51218554Y-53500471D01*
X51228782Y-53478847D01*
X51241079Y-53458330D01*
X51255329Y-53439117D01*
X51271393Y-53421393D01*
X51289117Y-53405329D01*
X51308330Y-53391079D01*
X51328847Y-53378782D01*
X51350471Y-53368554D01*
X51372993Y-53360496D01*
X51396197Y-53354684D01*
X51419858Y-53351174D01*
X51443750Y-53350000D01*
X52356250Y-53350000D01*
X52380142Y-53351174D01*
G37*
G04 #@! TD.AperFunction*
G04 #@! TA.AperFunction,SMDPad,CuDef*
G36*
X52380142Y-51476174D02*
G01*
X52403803Y-51479684D01*
X52427007Y-51485496D01*
X52449529Y-51493554D01*
X52471153Y-51503782D01*
X52491670Y-51516079D01*
X52510883Y-51530329D01*
X52528607Y-51546393D01*
X52544671Y-51564117D01*
X52558921Y-51583330D01*
X52571218Y-51603847D01*
X52581446Y-51625471D01*
X52589504Y-51647993D01*
X52595316Y-51671197D01*
X52598826Y-51694858D01*
X52600000Y-51718750D01*
X52600000Y-52206250D01*
X52598826Y-52230142D01*
X52595316Y-52253803D01*
X52589504Y-52277007D01*
X52581446Y-52299529D01*
X52571218Y-52321153D01*
X52558921Y-52341670D01*
X52544671Y-52360883D01*
X52528607Y-52378607D01*
X52510883Y-52394671D01*
X52491670Y-52408921D01*
X52471153Y-52421218D01*
X52449529Y-52431446D01*
X52427007Y-52439504D01*
X52403803Y-52445316D01*
X52380142Y-52448826D01*
X52356250Y-52450000D01*
X51443750Y-52450000D01*
X51419858Y-52448826D01*
X51396197Y-52445316D01*
X51372993Y-52439504D01*
X51350471Y-52431446D01*
X51328847Y-52421218D01*
X51308330Y-52408921D01*
X51289117Y-52394671D01*
X51271393Y-52378607D01*
X51255329Y-52360883D01*
X51241079Y-52341670D01*
X51228782Y-52321153D01*
X51218554Y-52299529D01*
X51210496Y-52277007D01*
X51204684Y-52253803D01*
X51201174Y-52230142D01*
X51200000Y-52206250D01*
X51200000Y-51718750D01*
X51201174Y-51694858D01*
X51204684Y-51671197D01*
X51210496Y-51647993D01*
X51218554Y-51625471D01*
X51228782Y-51603847D01*
X51241079Y-51583330D01*
X51255329Y-51564117D01*
X51271393Y-51546393D01*
X51289117Y-51530329D01*
X51308330Y-51516079D01*
X51328847Y-51503782D01*
X51350471Y-51493554D01*
X51372993Y-51485496D01*
X51396197Y-51479684D01*
X51419858Y-51476174D01*
X51443750Y-51475000D01*
X52356250Y-51475000D01*
X52380142Y-51476174D01*
G37*
G04 #@! TD.AperFunction*
G04 #@! TA.AperFunction,SMDPad,CuDef*
G36*
X57430142Y-57401174D02*
G01*
X57453803Y-57404684D01*
X57477007Y-57410496D01*
X57499529Y-57418554D01*
X57521153Y-57428782D01*
X57541670Y-57441079D01*
X57560883Y-57455329D01*
X57578607Y-57471393D01*
X57594671Y-57489117D01*
X57608921Y-57508330D01*
X57621218Y-57528847D01*
X57631446Y-57550471D01*
X57639504Y-57572993D01*
X57645316Y-57596197D01*
X57648826Y-57619858D01*
X57650000Y-57643750D01*
X57650000Y-58556250D01*
X57648826Y-58580142D01*
X57645316Y-58603803D01*
X57639504Y-58627007D01*
X57631446Y-58649529D01*
X57621218Y-58671153D01*
X57608921Y-58691670D01*
X57594671Y-58710883D01*
X57578607Y-58728607D01*
X57560883Y-58744671D01*
X57541670Y-58758921D01*
X57521153Y-58771218D01*
X57499529Y-58781446D01*
X57477007Y-58789504D01*
X57453803Y-58795316D01*
X57430142Y-58798826D01*
X57406250Y-58800000D01*
X56918750Y-58800000D01*
X56894858Y-58798826D01*
X56871197Y-58795316D01*
X56847993Y-58789504D01*
X56825471Y-58781446D01*
X56803847Y-58771218D01*
X56783330Y-58758921D01*
X56764117Y-58744671D01*
X56746393Y-58728607D01*
X56730329Y-58710883D01*
X56716079Y-58691670D01*
X56703782Y-58671153D01*
X56693554Y-58649529D01*
X56685496Y-58627007D01*
X56679684Y-58603803D01*
X56676174Y-58580142D01*
X56675000Y-58556250D01*
X56675000Y-57643750D01*
X56676174Y-57619858D01*
X56679684Y-57596197D01*
X56685496Y-57572993D01*
X56693554Y-57550471D01*
X56703782Y-57528847D01*
X56716079Y-57508330D01*
X56730329Y-57489117D01*
X56746393Y-57471393D01*
X56764117Y-57455329D01*
X56783330Y-57441079D01*
X56803847Y-57428782D01*
X56825471Y-57418554D01*
X56847993Y-57410496D01*
X56871197Y-57404684D01*
X56894858Y-57401174D01*
X56918750Y-57400000D01*
X57406250Y-57400000D01*
X57430142Y-57401174D01*
G37*
G04 #@! TD.AperFunction*
G04 #@! TA.AperFunction,SMDPad,CuDef*
G36*
X59305142Y-57401174D02*
G01*
X59328803Y-57404684D01*
X59352007Y-57410496D01*
X59374529Y-57418554D01*
X59396153Y-57428782D01*
X59416670Y-57441079D01*
X59435883Y-57455329D01*
X59453607Y-57471393D01*
X59469671Y-57489117D01*
X59483921Y-57508330D01*
X59496218Y-57528847D01*
X59506446Y-57550471D01*
X59514504Y-57572993D01*
X59520316Y-57596197D01*
X59523826Y-57619858D01*
X59525000Y-57643750D01*
X59525000Y-58556250D01*
X59523826Y-58580142D01*
X59520316Y-58603803D01*
X59514504Y-58627007D01*
X59506446Y-58649529D01*
X59496218Y-58671153D01*
X59483921Y-58691670D01*
X59469671Y-58710883D01*
X59453607Y-58728607D01*
X59435883Y-58744671D01*
X59416670Y-58758921D01*
X59396153Y-58771218D01*
X59374529Y-58781446D01*
X59352007Y-58789504D01*
X59328803Y-58795316D01*
X59305142Y-58798826D01*
X59281250Y-58800000D01*
X58793750Y-58800000D01*
X58769858Y-58798826D01*
X58746197Y-58795316D01*
X58722993Y-58789504D01*
X58700471Y-58781446D01*
X58678847Y-58771218D01*
X58658330Y-58758921D01*
X58639117Y-58744671D01*
X58621393Y-58728607D01*
X58605329Y-58710883D01*
X58591079Y-58691670D01*
X58578782Y-58671153D01*
X58568554Y-58649529D01*
X58560496Y-58627007D01*
X58554684Y-58603803D01*
X58551174Y-58580142D01*
X58550000Y-58556250D01*
X58550000Y-57643750D01*
X58551174Y-57619858D01*
X58554684Y-57596197D01*
X58560496Y-57572993D01*
X58568554Y-57550471D01*
X58578782Y-57528847D01*
X58591079Y-57508330D01*
X58605329Y-57489117D01*
X58621393Y-57471393D01*
X58639117Y-57455329D01*
X58658330Y-57441079D01*
X58678847Y-57428782D01*
X58700471Y-57418554D01*
X58722993Y-57410496D01*
X58746197Y-57404684D01*
X58769858Y-57401174D01*
X58793750Y-57400000D01*
X59281250Y-57400000D01*
X59305142Y-57401174D01*
G37*
G04 #@! TD.AperFunction*
G04 #@! TA.AperFunction,SMDPad,CuDef*
G36*
X55855142Y-51501174D02*
G01*
X55878803Y-51504684D01*
X55902007Y-51510496D01*
X55924529Y-51518554D01*
X55946153Y-51528782D01*
X55966670Y-51541079D01*
X55985883Y-51555329D01*
X56003607Y-51571393D01*
X56019671Y-51589117D01*
X56033921Y-51608330D01*
X56046218Y-51628847D01*
X56056446Y-51650471D01*
X56064504Y-51672993D01*
X56070316Y-51696197D01*
X56073826Y-51719858D01*
X56075000Y-51743750D01*
X56075000Y-52656250D01*
X56073826Y-52680142D01*
X56070316Y-52703803D01*
X56064504Y-52727007D01*
X56056446Y-52749529D01*
X56046218Y-52771153D01*
X56033921Y-52791670D01*
X56019671Y-52810883D01*
X56003607Y-52828607D01*
X55985883Y-52844671D01*
X55966670Y-52858921D01*
X55946153Y-52871218D01*
X55924529Y-52881446D01*
X55902007Y-52889504D01*
X55878803Y-52895316D01*
X55855142Y-52898826D01*
X55831250Y-52900000D01*
X55343750Y-52900000D01*
X55319858Y-52898826D01*
X55296197Y-52895316D01*
X55272993Y-52889504D01*
X55250471Y-52881446D01*
X55228847Y-52871218D01*
X55208330Y-52858921D01*
X55189117Y-52844671D01*
X55171393Y-52828607D01*
X55155329Y-52810883D01*
X55141079Y-52791670D01*
X55128782Y-52771153D01*
X55118554Y-52749529D01*
X55110496Y-52727007D01*
X55104684Y-52703803D01*
X55101174Y-52680142D01*
X55100000Y-52656250D01*
X55100000Y-51743750D01*
X55101174Y-51719858D01*
X55104684Y-51696197D01*
X55110496Y-51672993D01*
X55118554Y-51650471D01*
X55128782Y-51628847D01*
X55141079Y-51608330D01*
X55155329Y-51589117D01*
X55171393Y-51571393D01*
X55189117Y-51555329D01*
X55208330Y-51541079D01*
X55228847Y-51528782D01*
X55250471Y-51518554D01*
X55272993Y-51510496D01*
X55296197Y-51504684D01*
X55319858Y-51501174D01*
X55343750Y-51500000D01*
X55831250Y-51500000D01*
X55855142Y-51501174D01*
G37*
G04 #@! TD.AperFunction*
G04 #@! TA.AperFunction,SMDPad,CuDef*
G36*
X53980142Y-51501174D02*
G01*
X54003803Y-51504684D01*
X54027007Y-51510496D01*
X54049529Y-51518554D01*
X54071153Y-51528782D01*
X54091670Y-51541079D01*
X54110883Y-51555329D01*
X54128607Y-51571393D01*
X54144671Y-51589117D01*
X54158921Y-51608330D01*
X54171218Y-51628847D01*
X54181446Y-51650471D01*
X54189504Y-51672993D01*
X54195316Y-51696197D01*
X54198826Y-51719858D01*
X54200000Y-51743750D01*
X54200000Y-52656250D01*
X54198826Y-52680142D01*
X54195316Y-52703803D01*
X54189504Y-52727007D01*
X54181446Y-52749529D01*
X54171218Y-52771153D01*
X54158921Y-52791670D01*
X54144671Y-52810883D01*
X54128607Y-52828607D01*
X54110883Y-52844671D01*
X54091670Y-52858921D01*
X54071153Y-52871218D01*
X54049529Y-52881446D01*
X54027007Y-52889504D01*
X54003803Y-52895316D01*
X53980142Y-52898826D01*
X53956250Y-52900000D01*
X53468750Y-52900000D01*
X53444858Y-52898826D01*
X53421197Y-52895316D01*
X53397993Y-52889504D01*
X53375471Y-52881446D01*
X53353847Y-52871218D01*
X53333330Y-52858921D01*
X53314117Y-52844671D01*
X53296393Y-52828607D01*
X53280329Y-52810883D01*
X53266079Y-52791670D01*
X53253782Y-52771153D01*
X53243554Y-52749529D01*
X53235496Y-52727007D01*
X53229684Y-52703803D01*
X53226174Y-52680142D01*
X53225000Y-52656250D01*
X53225000Y-51743750D01*
X53226174Y-51719858D01*
X53229684Y-51696197D01*
X53235496Y-51672993D01*
X53243554Y-51650471D01*
X53253782Y-51628847D01*
X53266079Y-51608330D01*
X53280329Y-51589117D01*
X53296393Y-51571393D01*
X53314117Y-51555329D01*
X53333330Y-51541079D01*
X53353847Y-51528782D01*
X53375471Y-51518554D01*
X53397993Y-51510496D01*
X53421197Y-51504684D01*
X53444858Y-51501174D01*
X53468750Y-51500000D01*
X53956250Y-51500000D01*
X53980142Y-51501174D01*
G37*
G04 #@! TD.AperFunction*
G04 #@! TA.AperFunction,SMDPad,CuDef*
G36*
X55855142Y-57401174D02*
G01*
X55878803Y-57404684D01*
X55902007Y-57410496D01*
X55924529Y-57418554D01*
X55946153Y-57428782D01*
X55966670Y-57441079D01*
X55985883Y-57455329D01*
X56003607Y-57471393D01*
X56019671Y-57489117D01*
X56033921Y-57508330D01*
X56046218Y-57528847D01*
X56056446Y-57550471D01*
X56064504Y-57572993D01*
X56070316Y-57596197D01*
X56073826Y-57619858D01*
X56075000Y-57643750D01*
X56075000Y-58556250D01*
X56073826Y-58580142D01*
X56070316Y-58603803D01*
X56064504Y-58627007D01*
X56056446Y-58649529D01*
X56046218Y-58671153D01*
X56033921Y-58691670D01*
X56019671Y-58710883D01*
X56003607Y-58728607D01*
X55985883Y-58744671D01*
X55966670Y-58758921D01*
X55946153Y-58771218D01*
X55924529Y-58781446D01*
X55902007Y-58789504D01*
X55878803Y-58795316D01*
X55855142Y-58798826D01*
X55831250Y-58800000D01*
X55343750Y-58800000D01*
X55319858Y-58798826D01*
X55296197Y-58795316D01*
X55272993Y-58789504D01*
X55250471Y-58781446D01*
X55228847Y-58771218D01*
X55208330Y-58758921D01*
X55189117Y-58744671D01*
X55171393Y-58728607D01*
X55155329Y-58710883D01*
X55141079Y-58691670D01*
X55128782Y-58671153D01*
X55118554Y-58649529D01*
X55110496Y-58627007D01*
X55104684Y-58603803D01*
X55101174Y-58580142D01*
X55100000Y-58556250D01*
X55100000Y-57643750D01*
X55101174Y-57619858D01*
X55104684Y-57596197D01*
X55110496Y-57572993D01*
X55118554Y-57550471D01*
X55128782Y-57528847D01*
X55141079Y-57508330D01*
X55155329Y-57489117D01*
X55171393Y-57471393D01*
X55189117Y-57455329D01*
X55208330Y-57441079D01*
X55228847Y-57428782D01*
X55250471Y-57418554D01*
X55272993Y-57410496D01*
X55296197Y-57404684D01*
X55319858Y-57401174D01*
X55343750Y-57400000D01*
X55831250Y-57400000D01*
X55855142Y-57401174D01*
G37*
G04 #@! TD.AperFunction*
G04 #@! TA.AperFunction,SMDPad,CuDef*
G36*
X53980142Y-57401174D02*
G01*
X54003803Y-57404684D01*
X54027007Y-57410496D01*
X54049529Y-57418554D01*
X54071153Y-57428782D01*
X54091670Y-57441079D01*
X54110883Y-57455329D01*
X54128607Y-57471393D01*
X54144671Y-57489117D01*
X54158921Y-57508330D01*
X54171218Y-57528847D01*
X54181446Y-57550471D01*
X54189504Y-57572993D01*
X54195316Y-57596197D01*
X54198826Y-57619858D01*
X54200000Y-57643750D01*
X54200000Y-58556250D01*
X54198826Y-58580142D01*
X54195316Y-58603803D01*
X54189504Y-58627007D01*
X54181446Y-58649529D01*
X54171218Y-58671153D01*
X54158921Y-58691670D01*
X54144671Y-58710883D01*
X54128607Y-58728607D01*
X54110883Y-58744671D01*
X54091670Y-58758921D01*
X54071153Y-58771218D01*
X54049529Y-58781446D01*
X54027007Y-58789504D01*
X54003803Y-58795316D01*
X53980142Y-58798826D01*
X53956250Y-58800000D01*
X53468750Y-58800000D01*
X53444858Y-58798826D01*
X53421197Y-58795316D01*
X53397993Y-58789504D01*
X53375471Y-58781446D01*
X53353847Y-58771218D01*
X53333330Y-58758921D01*
X53314117Y-58744671D01*
X53296393Y-58728607D01*
X53280329Y-58710883D01*
X53266079Y-58691670D01*
X53253782Y-58671153D01*
X53243554Y-58649529D01*
X53235496Y-58627007D01*
X53229684Y-58603803D01*
X53226174Y-58580142D01*
X53225000Y-58556250D01*
X53225000Y-57643750D01*
X53226174Y-57619858D01*
X53229684Y-57596197D01*
X53235496Y-57572993D01*
X53243554Y-57550471D01*
X53253782Y-57528847D01*
X53266079Y-57508330D01*
X53280329Y-57489117D01*
X53296393Y-57471393D01*
X53314117Y-57455329D01*
X53333330Y-57441079D01*
X53353847Y-57428782D01*
X53375471Y-57418554D01*
X53397993Y-57410496D01*
X53421197Y-57404684D01*
X53444858Y-57401174D01*
X53468750Y-57400000D01*
X53956250Y-57400000D01*
X53980142Y-57401174D01*
G37*
G04 #@! TD.AperFunction*
D11*
X63700000Y-51250000D03*
X63700000Y-55150000D03*
X63700000Y-59050000D03*
G04 #@! TA.AperFunction,SMDPad,CuDef*
D10*
G36*
X61229405Y-52351445D02*
G01*
X61258527Y-52355764D01*
X61287085Y-52362918D01*
X61314805Y-52372836D01*
X61341419Y-52385424D01*
X61366671Y-52400559D01*
X61390318Y-52418097D01*
X61412132Y-52437868D01*
X61431903Y-52459682D01*
X61449441Y-52483329D01*
X61464576Y-52508581D01*
X61477164Y-52535195D01*
X61487082Y-52562915D01*
X61494236Y-52591473D01*
X61498555Y-52620595D01*
X61500000Y-52650000D01*
X61500000Y-53250000D01*
X61498555Y-53279405D01*
X61494236Y-53308527D01*
X61487082Y-53337085D01*
X61477164Y-53364805D01*
X61464576Y-53391419D01*
X61449441Y-53416671D01*
X61431903Y-53440318D01*
X61412132Y-53462132D01*
X61390318Y-53481903D01*
X61366671Y-53499441D01*
X61341419Y-53514576D01*
X61314805Y-53527164D01*
X61287085Y-53537082D01*
X61258527Y-53544236D01*
X61229405Y-53548555D01*
X61200000Y-53550000D01*
X58300000Y-53550000D01*
X58270595Y-53548555D01*
X58241473Y-53544236D01*
X58212915Y-53537082D01*
X58185195Y-53527164D01*
X58158581Y-53514576D01*
X58133329Y-53499441D01*
X58109682Y-53481903D01*
X58087868Y-53462132D01*
X58068097Y-53440318D01*
X58050559Y-53416671D01*
X58035424Y-53391419D01*
X58022836Y-53364805D01*
X58012918Y-53337085D01*
X58005764Y-53308527D01*
X58001445Y-53279405D01*
X58000000Y-53250000D01*
X58000000Y-52650000D01*
X58001445Y-52620595D01*
X58005764Y-52591473D01*
X58012918Y-52562915D01*
X58022836Y-52535195D01*
X58035424Y-52508581D01*
X58050559Y-52483329D01*
X58068097Y-52459682D01*
X58087868Y-52437868D01*
X58109682Y-52418097D01*
X58133329Y-52400559D01*
X58158581Y-52385424D01*
X58185195Y-52372836D01*
X58212915Y-52362918D01*
X58241473Y-52355764D01*
X58270595Y-52351445D01*
X58300000Y-52350000D01*
X61200000Y-52350000D01*
X61229405Y-52351445D01*
G37*
G04 #@! TD.AperFunction*
G04 #@! TA.AperFunction,SMDPad,CuDef*
G36*
X61229405Y-54551445D02*
G01*
X61258527Y-54555764D01*
X61287085Y-54562918D01*
X61314805Y-54572836D01*
X61341419Y-54585424D01*
X61366671Y-54600559D01*
X61390318Y-54618097D01*
X61412132Y-54637868D01*
X61431903Y-54659682D01*
X61449441Y-54683329D01*
X61464576Y-54708581D01*
X61477164Y-54735195D01*
X61487082Y-54762915D01*
X61494236Y-54791473D01*
X61498555Y-54820595D01*
X61500000Y-54850000D01*
X61500000Y-55450000D01*
X61498555Y-55479405D01*
X61494236Y-55508527D01*
X61487082Y-55537085D01*
X61477164Y-55564805D01*
X61464576Y-55591419D01*
X61449441Y-55616671D01*
X61431903Y-55640318D01*
X61412132Y-55662132D01*
X61390318Y-55681903D01*
X61366671Y-55699441D01*
X61341419Y-55714576D01*
X61314805Y-55727164D01*
X61287085Y-55737082D01*
X61258527Y-55744236D01*
X61229405Y-55748555D01*
X61200000Y-55750000D01*
X58300000Y-55750000D01*
X58270595Y-55748555D01*
X58241473Y-55744236D01*
X58212915Y-55737082D01*
X58185195Y-55727164D01*
X58158581Y-55714576D01*
X58133329Y-55699441D01*
X58109682Y-55681903D01*
X58087868Y-55662132D01*
X58068097Y-55640318D01*
X58050559Y-55616671D01*
X58035424Y-55591419D01*
X58022836Y-55564805D01*
X58012918Y-55537085D01*
X58005764Y-55508527D01*
X58001445Y-55479405D01*
X58000000Y-55450000D01*
X58000000Y-54850000D01*
X58001445Y-54820595D01*
X58005764Y-54791473D01*
X58012918Y-54762915D01*
X58022836Y-54735195D01*
X58035424Y-54708581D01*
X58050559Y-54683329D01*
X58068097Y-54659682D01*
X58087868Y-54637868D01*
X58109682Y-54618097D01*
X58133329Y-54600559D01*
X58158581Y-54585424D01*
X58185195Y-54572836D01*
X58212915Y-54562918D01*
X58241473Y-54555764D01*
X58270595Y-54551445D01*
X58300000Y-54550000D01*
X61200000Y-54550000D01*
X61229405Y-54551445D01*
G37*
G04 #@! TD.AperFunction*
G04 #@! TA.AperFunction,SMDPad,CuDef*
G36*
X52380142Y-55776174D02*
G01*
X52403803Y-55779684D01*
X52427007Y-55785496D01*
X52449529Y-55793554D01*
X52471153Y-55803782D01*
X52491670Y-55816079D01*
X52510883Y-55830329D01*
X52528607Y-55846393D01*
X52544671Y-55864117D01*
X52558921Y-55883330D01*
X52571218Y-55903847D01*
X52581446Y-55925471D01*
X52589504Y-55947993D01*
X52595316Y-55971197D01*
X52598826Y-55994858D01*
X52600000Y-56018750D01*
X52600000Y-56506250D01*
X52598826Y-56530142D01*
X52595316Y-56553803D01*
X52589504Y-56577007D01*
X52581446Y-56599529D01*
X52571218Y-56621153D01*
X52558921Y-56641670D01*
X52544671Y-56660883D01*
X52528607Y-56678607D01*
X52510883Y-56694671D01*
X52491670Y-56708921D01*
X52471153Y-56721218D01*
X52449529Y-56731446D01*
X52427007Y-56739504D01*
X52403803Y-56745316D01*
X52380142Y-56748826D01*
X52356250Y-56750000D01*
X51443750Y-56750000D01*
X51419858Y-56748826D01*
X51396197Y-56745316D01*
X51372993Y-56739504D01*
X51350471Y-56731446D01*
X51328847Y-56721218D01*
X51308330Y-56708921D01*
X51289117Y-56694671D01*
X51271393Y-56678607D01*
X51255329Y-56660883D01*
X51241079Y-56641670D01*
X51228782Y-56621153D01*
X51218554Y-56599529D01*
X51210496Y-56577007D01*
X51204684Y-56553803D01*
X51201174Y-56530142D01*
X51200000Y-56506250D01*
X51200000Y-56018750D01*
X51201174Y-55994858D01*
X51204684Y-55971197D01*
X51210496Y-55947993D01*
X51218554Y-55925471D01*
X51228782Y-55903847D01*
X51241079Y-55883330D01*
X51255329Y-55864117D01*
X51271393Y-55846393D01*
X51289117Y-55830329D01*
X51308330Y-55816079D01*
X51328847Y-55803782D01*
X51350471Y-55793554D01*
X51372993Y-55785496D01*
X51396197Y-55779684D01*
X51419858Y-55776174D01*
X51443750Y-55775000D01*
X52356250Y-55775000D01*
X52380142Y-55776174D01*
G37*
G04 #@! TD.AperFunction*
G04 #@! TA.AperFunction,SMDPad,CuDef*
G36*
X52380142Y-57651174D02*
G01*
X52403803Y-57654684D01*
X52427007Y-57660496D01*
X52449529Y-57668554D01*
X52471153Y-57678782D01*
X52491670Y-57691079D01*
X52510883Y-57705329D01*
X52528607Y-57721393D01*
X52544671Y-57739117D01*
X52558921Y-57758330D01*
X52571218Y-57778847D01*
X52581446Y-57800471D01*
X52589504Y-57822993D01*
X52595316Y-57846197D01*
X52598826Y-57869858D01*
X52600000Y-57893750D01*
X52600000Y-58381250D01*
X52598826Y-58405142D01*
X52595316Y-58428803D01*
X52589504Y-58452007D01*
X52581446Y-58474529D01*
X52571218Y-58496153D01*
X52558921Y-58516670D01*
X52544671Y-58535883D01*
X52528607Y-58553607D01*
X52510883Y-58569671D01*
X52491670Y-58583921D01*
X52471153Y-58596218D01*
X52449529Y-58606446D01*
X52427007Y-58614504D01*
X52403803Y-58620316D01*
X52380142Y-58623826D01*
X52356250Y-58625000D01*
X51443750Y-58625000D01*
X51419858Y-58623826D01*
X51396197Y-58620316D01*
X51372993Y-58614504D01*
X51350471Y-58606446D01*
X51328847Y-58596218D01*
X51308330Y-58583921D01*
X51289117Y-58569671D01*
X51271393Y-58553607D01*
X51255329Y-58535883D01*
X51241079Y-58516670D01*
X51228782Y-58496153D01*
X51218554Y-58474529D01*
X51210496Y-58452007D01*
X51204684Y-58428803D01*
X51201174Y-58405142D01*
X51200000Y-58381250D01*
X51200000Y-57893750D01*
X51201174Y-57869858D01*
X51204684Y-57846197D01*
X51210496Y-57822993D01*
X51218554Y-57800471D01*
X51228782Y-57778847D01*
X51241079Y-57758330D01*
X51255329Y-57739117D01*
X51271393Y-57721393D01*
X51289117Y-57705329D01*
X51308330Y-57691079D01*
X51328847Y-57678782D01*
X51350471Y-57668554D01*
X51372993Y-57660496D01*
X51396197Y-57654684D01*
X51419858Y-57651174D01*
X51443750Y-57650000D01*
X52356250Y-57650000D01*
X52380142Y-57651174D01*
G37*
G04 #@! TD.AperFunction*
D12*
X54650000Y-56250000D03*
X55600000Y-56250000D03*
X56550000Y-56250000D03*
X56550000Y-54050000D03*
X54650000Y-54050000D03*
X55600000Y-54050000D03*
D13*
X54650000Y-59350000D03*
X51900000Y-55000000D03*
X51900000Y-59000000D03*
X51900000Y-51050000D03*
X55600000Y-57150000D03*
X60200000Y-58100000D03*
X57100000Y-52650000D03*
D14*
X54650000Y-56250000D02*
X54650000Y-59350000D01*
D15*
X51900000Y-55000000D02*
X51900000Y-53837500D01*
X51900000Y-56262500D02*
X51900000Y-55000000D01*
X57162500Y-58100000D02*
X57162500Y-57612500D01*
X56550000Y-57000000D02*
X56550000Y-56250000D01*
X57162500Y-57612500D02*
X56550000Y-57000000D01*
D14*
X59037500Y-58100000D02*
X60200000Y-58100000D01*
D15*
X55600000Y-52212500D02*
X55587500Y-52200000D01*
X55600000Y-54050000D02*
X55600000Y-52212500D01*
D16*
X56537500Y-51250000D02*
X55587500Y-52200000D01*
X63700000Y-51250000D02*
X56537500Y-51250000D01*
D17*
G36*
X54523000Y-53200000D02*
G01*
X54525440Y-53224776D01*
X54532667Y-53248601D01*
X54544403Y-53270557D01*
X54560197Y-53289803D01*
X54579443Y-53305597D01*
X54601399Y-53317333D01*
X54625224Y-53324560D01*
X54650000Y-53327000D01*
X54946150Y-53327000D01*
X54921299Y-53373492D01*
X54899513Y-53445311D01*
X54892157Y-53520000D01*
X54892157Y-54580000D01*
X54899513Y-54654689D01*
X54921299Y-54726508D01*
X54956678Y-54792696D01*
X54974408Y-54814301D01*
X54975440Y-54824776D01*
X54982667Y-54848601D01*
X54994403Y-54870557D01*
X55010197Y-54889803D01*
X55029443Y-54905597D01*
X55051399Y-54917333D01*
X55075224Y-54924560D01*
X55100000Y-54927000D01*
X55115956Y-54927000D01*
X55128492Y-54933701D01*
X55200311Y-54955487D01*
X55275000Y-54962843D01*
X55925000Y-54962843D01*
X55999689Y-54955487D01*
X56071508Y-54933701D01*
X56075000Y-54931834D01*
X56078492Y-54933701D01*
X56150311Y-54955487D01*
X56225000Y-54962843D01*
X56875000Y-54962843D01*
X56949689Y-54955487D01*
X57021508Y-54933701D01*
X57034044Y-54927000D01*
X57400000Y-54927000D01*
X57424776Y-54924560D01*
X57448601Y-54917333D01*
X57470557Y-54905597D01*
X57489803Y-54889803D01*
X57505597Y-54870557D01*
X57517333Y-54848601D01*
X57524560Y-54824776D01*
X57526218Y-54807939D01*
X57545802Y-54801998D01*
X57611672Y-54766790D01*
X57669408Y-54719408D01*
X57716790Y-54661672D01*
X57751998Y-54595802D01*
X57773679Y-54524329D01*
X57777947Y-54481000D01*
X61900000Y-54481000D01*
X61974329Y-54473679D01*
X62045802Y-54451998D01*
X62111672Y-54416790D01*
X62169408Y-54369408D01*
X62216790Y-54311672D01*
X62251998Y-54245802D01*
X62257701Y-54227000D01*
X64873000Y-54227000D01*
X64873000Y-56073000D01*
X57327000Y-56073000D01*
X57327000Y-55500000D01*
X57324560Y-55475224D01*
X57317333Y-55451399D01*
X57305597Y-55429443D01*
X57289803Y-55410197D01*
X57270557Y-55394403D01*
X57248601Y-55382667D01*
X57224776Y-55375440D01*
X57200000Y-55373000D01*
X57034044Y-55373000D01*
X57021508Y-55366299D01*
X56949689Y-55344513D01*
X56875000Y-55337157D01*
X56225000Y-55337157D01*
X56150311Y-55344513D01*
X56078492Y-55366299D01*
X56075000Y-55368166D01*
X56071508Y-55366299D01*
X55999689Y-55344513D01*
X55925000Y-55337157D01*
X55275000Y-55337157D01*
X55200311Y-55344513D01*
X55128492Y-55366299D01*
X55125000Y-55368166D01*
X55121508Y-55366299D01*
X55049689Y-55344513D01*
X54975000Y-55337157D01*
X54325000Y-55337157D01*
X54250311Y-55344513D01*
X54178492Y-55366299D01*
X54112304Y-55401678D01*
X54054289Y-55449289D01*
X54006678Y-55507304D01*
X53971299Y-55573492D01*
X53949513Y-55645311D01*
X53942157Y-55720000D01*
X53942157Y-56780000D01*
X53949513Y-56854689D01*
X53971299Y-56926508D01*
X54006678Y-56992696D01*
X54054289Y-57050711D01*
X54112304Y-57098322D01*
X54119000Y-57101901D01*
X54119001Y-58776498D01*
X54043358Y-58852141D01*
X53962603Y-58973000D01*
X53027000Y-58973000D01*
X53027000Y-51327000D01*
X54523000Y-51327000D01*
X54523000Y-53200000D01*
G37*
X54523000Y-53200000D02*
X54525440Y-53224776D01*
X54532667Y-53248601D01*
X54544403Y-53270557D01*
X54560197Y-53289803D01*
X54579443Y-53305597D01*
X54601399Y-53317333D01*
X54625224Y-53324560D01*
X54650000Y-53327000D01*
X54946150Y-53327000D01*
X54921299Y-53373492D01*
X54899513Y-53445311D01*
X54892157Y-53520000D01*
X54892157Y-54580000D01*
X54899513Y-54654689D01*
X54921299Y-54726508D01*
X54956678Y-54792696D01*
X54974408Y-54814301D01*
X54975440Y-54824776D01*
X54982667Y-54848601D01*
X54994403Y-54870557D01*
X55010197Y-54889803D01*
X55029443Y-54905597D01*
X55051399Y-54917333D01*
X55075224Y-54924560D01*
X55100000Y-54927000D01*
X55115956Y-54927000D01*
X55128492Y-54933701D01*
X55200311Y-54955487D01*
X55275000Y-54962843D01*
X55925000Y-54962843D01*
X55999689Y-54955487D01*
X56071508Y-54933701D01*
X56075000Y-54931834D01*
X56078492Y-54933701D01*
X56150311Y-54955487D01*
X56225000Y-54962843D01*
X56875000Y-54962843D01*
X56949689Y-54955487D01*
X57021508Y-54933701D01*
X57034044Y-54927000D01*
X57400000Y-54927000D01*
X57424776Y-54924560D01*
X57448601Y-54917333D01*
X57470557Y-54905597D01*
X57489803Y-54889803D01*
X57505597Y-54870557D01*
X57517333Y-54848601D01*
X57524560Y-54824776D01*
X57526218Y-54807939D01*
X57545802Y-54801998D01*
X57611672Y-54766790D01*
X57669408Y-54719408D01*
X57716790Y-54661672D01*
X57751998Y-54595802D01*
X57773679Y-54524329D01*
X57777947Y-54481000D01*
X61900000Y-54481000D01*
X61974329Y-54473679D01*
X62045802Y-54451998D01*
X62111672Y-54416790D01*
X62169408Y-54369408D01*
X62216790Y-54311672D01*
X62251998Y-54245802D01*
X62257701Y-54227000D01*
X64873000Y-54227000D01*
X64873000Y-56073000D01*
X57327000Y-56073000D01*
X57327000Y-55500000D01*
X57324560Y-55475224D01*
X57317333Y-55451399D01*
X57305597Y-55429443D01*
X57289803Y-55410197D01*
X57270557Y-55394403D01*
X57248601Y-55382667D01*
X57224776Y-55375440D01*
X57200000Y-55373000D01*
X57034044Y-55373000D01*
X57021508Y-55366299D01*
X56949689Y-55344513D01*
X56875000Y-55337157D01*
X56225000Y-55337157D01*
X56150311Y-55344513D01*
X56078492Y-55366299D01*
X56075000Y-55368166D01*
X56071508Y-55366299D01*
X55999689Y-55344513D01*
X55925000Y-55337157D01*
X55275000Y-55337157D01*
X55200311Y-55344513D01*
X55128492Y-55366299D01*
X55125000Y-55368166D01*
X55121508Y-55366299D01*
X55049689Y-55344513D01*
X54975000Y-55337157D01*
X54325000Y-55337157D01*
X54250311Y-55344513D01*
X54178492Y-55366299D01*
X54112304Y-55401678D01*
X54054289Y-55449289D01*
X54006678Y-55507304D01*
X53971299Y-55573492D01*
X53949513Y-55645311D01*
X53942157Y-55720000D01*
X53942157Y-56780000D01*
X53949513Y-56854689D01*
X53971299Y-56926508D01*
X54006678Y-56992696D01*
X54054289Y-57050711D01*
X54112304Y-57098322D01*
X54119000Y-57101901D01*
X54119001Y-58776498D01*
X54043358Y-58852141D01*
X53962603Y-58973000D01*
X53027000Y-58973000D01*
X53027000Y-51327000D01*
X54523000Y-51327000D01*
X54523000Y-53200000D01*
G36*
X61773000Y-53973000D02*
G01*
X57400000Y-53973000D01*
X57375224Y-53975440D01*
X57351399Y-53982667D01*
X57329443Y-53994403D01*
X57310197Y-54010197D01*
X57294403Y-54029443D01*
X57282667Y-54051399D01*
X57275440Y-54075224D01*
X57273000Y-54100000D01*
X57273000Y-54323000D01*
X56307843Y-54323000D01*
X56307843Y-53520000D01*
X56300487Y-53445311D01*
X56278701Y-53373492D01*
X56243322Y-53307304D01*
X56231000Y-53292289D01*
X56231000Y-53134868D01*
X56274318Y-53099318D01*
X56352243Y-53004366D01*
X56410146Y-52896037D01*
X56445803Y-52778492D01*
X56457843Y-52656250D01*
X56457843Y-52575578D01*
X56856422Y-52177000D01*
X61773000Y-52177000D01*
X61773000Y-53973000D01*
G37*
X61773000Y-53973000D02*
X57400000Y-53973000D01*
X57375224Y-53975440D01*
X57351399Y-53982667D01*
X57329443Y-53994403D01*
X57310197Y-54010197D01*
X57294403Y-54029443D01*
X57282667Y-54051399D01*
X57275440Y-54075224D01*
X57273000Y-54100000D01*
X57273000Y-54323000D01*
X56307843Y-54323000D01*
X56307843Y-53520000D01*
X56300487Y-53445311D01*
X56278701Y-53373492D01*
X56243322Y-53307304D01*
X56231000Y-53292289D01*
X56231000Y-53134868D01*
X56274318Y-53099318D01*
X56352243Y-53004366D01*
X56410146Y-52896037D01*
X56445803Y-52778492D01*
X56457843Y-52656250D01*
X56457843Y-52575578D01*
X56856422Y-52177000D01*
X61773000Y-52177000D01*
X61773000Y-53973000D01*
G36*
X55842157Y-56780000D02*
G01*
X55849513Y-56854689D01*
X55871299Y-56926508D01*
X55906678Y-56992696D01*
X55916395Y-57004536D01*
X55919000Y-57030990D01*
X55919000Y-57030997D01*
X55928130Y-57123697D01*
X55964211Y-57242641D01*
X56022804Y-57352260D01*
X56101657Y-57448343D01*
X56125737Y-57468105D01*
X56292984Y-57635352D01*
X56292157Y-57643750D01*
X56292157Y-58556250D01*
X56304197Y-58678492D01*
X56339854Y-58796037D01*
X56397757Y-58904366D01*
X56475682Y-58999318D01*
X56570634Y-59077243D01*
X56678963Y-59135146D01*
X56796508Y-59170803D01*
X56918750Y-59182843D01*
X57406250Y-59182843D01*
X57528492Y-59170803D01*
X57646037Y-59135146D01*
X57754366Y-59077243D01*
X57849318Y-58999318D01*
X57927243Y-58904366D01*
X57985146Y-58796037D01*
X58020803Y-58678492D01*
X58032843Y-58556250D01*
X58032843Y-57643750D01*
X58167157Y-57643750D01*
X58167157Y-58556250D01*
X58179197Y-58678492D01*
X58214854Y-58796037D01*
X58272757Y-58904366D01*
X58350682Y-58999318D01*
X58445634Y-59077243D01*
X58553963Y-59135146D01*
X58671508Y-59170803D01*
X58793750Y-59182843D01*
X59281250Y-59182843D01*
X59403492Y-59170803D01*
X59521037Y-59135146D01*
X59629366Y-59077243D01*
X59724318Y-58999318D01*
X59802243Y-58904366D01*
X59856409Y-58803028D01*
X59972191Y-58850987D01*
X60123078Y-58881000D01*
X60276922Y-58881000D01*
X60427809Y-58850987D01*
X60569942Y-58792113D01*
X60697859Y-58706642D01*
X60806642Y-58597859D01*
X60892113Y-58469942D01*
X60950987Y-58327809D01*
X60981000Y-58176922D01*
X60981000Y-58023078D01*
X60950987Y-57872191D01*
X60892113Y-57730058D01*
X60806642Y-57602141D01*
X60697859Y-57493358D01*
X60569942Y-57407887D01*
X60427809Y-57349013D01*
X60276922Y-57319000D01*
X60123078Y-57319000D01*
X59972191Y-57349013D01*
X59856409Y-57396972D01*
X59802243Y-57295634D01*
X59724318Y-57200682D01*
X59629366Y-57122757D01*
X59521037Y-57064854D01*
X59403492Y-57029197D01*
X59281250Y-57017157D01*
X58793750Y-57017157D01*
X58671508Y-57029197D01*
X58553963Y-57064854D01*
X58445634Y-57122757D01*
X58350682Y-57200682D01*
X58272757Y-57295634D01*
X58214854Y-57403963D01*
X58179197Y-57521508D01*
X58167157Y-57643750D01*
X58032843Y-57643750D01*
X58020803Y-57521508D01*
X57985146Y-57403963D01*
X57927243Y-57295634D01*
X57849318Y-57200682D01*
X57754366Y-57122757D01*
X57646037Y-57064854D01*
X57528492Y-57029197D01*
X57465346Y-57022978D01*
X57254662Y-56812294D01*
X57257843Y-56780000D01*
X57257843Y-56581000D01*
X65000000Y-56581000D01*
X65044000Y-56576666D01*
X65044000Y-60394000D01*
X50906000Y-60394000D01*
X50906000Y-56823016D01*
X50922757Y-56854366D01*
X51000682Y-56949318D01*
X51095634Y-57027243D01*
X51203963Y-57085146D01*
X51321508Y-57120803D01*
X51443750Y-57132843D01*
X52356250Y-57132843D01*
X52478492Y-57120803D01*
X52519000Y-57108515D01*
X52519000Y-59100000D01*
X52526321Y-59174329D01*
X52548002Y-59245802D01*
X52583210Y-59311672D01*
X52630592Y-59369408D01*
X52688328Y-59416790D01*
X52754198Y-59451998D01*
X52825671Y-59473679D01*
X52900000Y-59481000D01*
X53879757Y-59481000D01*
X53899013Y-59577809D01*
X53957887Y-59719942D01*
X54043358Y-59847859D01*
X54152141Y-59956642D01*
X54280058Y-60042113D01*
X54422191Y-60100987D01*
X54573078Y-60131000D01*
X54726922Y-60131000D01*
X54877809Y-60100987D01*
X55019942Y-60042113D01*
X55147859Y-59956642D01*
X55256642Y-59847859D01*
X55342113Y-59719942D01*
X55400987Y-59577809D01*
X55431000Y-59426922D01*
X55431000Y-59273078D01*
X55400987Y-59122191D01*
X55342113Y-58980058D01*
X55256642Y-58852141D01*
X55181000Y-58776499D01*
X55181000Y-57101901D01*
X55187696Y-57098322D01*
X55245711Y-57050711D01*
X55293322Y-56992696D01*
X55328701Y-56926508D01*
X55350487Y-56854689D01*
X55357843Y-56780000D01*
X55357843Y-55881000D01*
X55842157Y-55881000D01*
X55842157Y-56780000D01*
G37*
X55842157Y-56780000D02*
X55849513Y-56854689D01*
X55871299Y-56926508D01*
X55906678Y-56992696D01*
X55916395Y-57004536D01*
X55919000Y-57030990D01*
X55919000Y-57030997D01*
X55928130Y-57123697D01*
X55964211Y-57242641D01*
X56022804Y-57352260D01*
X56101657Y-57448343D01*
X56125737Y-57468105D01*
X56292984Y-57635352D01*
X56292157Y-57643750D01*
X56292157Y-58556250D01*
X56304197Y-58678492D01*
X56339854Y-58796037D01*
X56397757Y-58904366D01*
X56475682Y-58999318D01*
X56570634Y-59077243D01*
X56678963Y-59135146D01*
X56796508Y-59170803D01*
X56918750Y-59182843D01*
X57406250Y-59182843D01*
X57528492Y-59170803D01*
X57646037Y-59135146D01*
X57754366Y-59077243D01*
X57849318Y-58999318D01*
X57927243Y-58904366D01*
X57985146Y-58796037D01*
X58020803Y-58678492D01*
X58032843Y-58556250D01*
X58032843Y-57643750D01*
X58167157Y-57643750D01*
X58167157Y-58556250D01*
X58179197Y-58678492D01*
X58214854Y-58796037D01*
X58272757Y-58904366D01*
X58350682Y-58999318D01*
X58445634Y-59077243D01*
X58553963Y-59135146D01*
X58671508Y-59170803D01*
X58793750Y-59182843D01*
X59281250Y-59182843D01*
X59403492Y-59170803D01*
X59521037Y-59135146D01*
X59629366Y-59077243D01*
X59724318Y-58999318D01*
X59802243Y-58904366D01*
X59856409Y-58803028D01*
X59972191Y-58850987D01*
X60123078Y-58881000D01*
X60276922Y-58881000D01*
X60427809Y-58850987D01*
X60569942Y-58792113D01*
X60697859Y-58706642D01*
X60806642Y-58597859D01*
X60892113Y-58469942D01*
X60950987Y-58327809D01*
X60981000Y-58176922D01*
X60981000Y-58023078D01*
X60950987Y-57872191D01*
X60892113Y-57730058D01*
X60806642Y-57602141D01*
X60697859Y-57493358D01*
X60569942Y-57407887D01*
X60427809Y-57349013D01*
X60276922Y-57319000D01*
X60123078Y-57319000D01*
X59972191Y-57349013D01*
X59856409Y-57396972D01*
X59802243Y-57295634D01*
X59724318Y-57200682D01*
X59629366Y-57122757D01*
X59521037Y-57064854D01*
X59403492Y-57029197D01*
X59281250Y-57017157D01*
X58793750Y-57017157D01*
X58671508Y-57029197D01*
X58553963Y-57064854D01*
X58445634Y-57122757D01*
X58350682Y-57200682D01*
X58272757Y-57295634D01*
X58214854Y-57403963D01*
X58179197Y-57521508D01*
X58167157Y-57643750D01*
X58032843Y-57643750D01*
X58020803Y-57521508D01*
X57985146Y-57403963D01*
X57927243Y-57295634D01*
X57849318Y-57200682D01*
X57754366Y-57122757D01*
X57646037Y-57064854D01*
X57528492Y-57029197D01*
X57465346Y-57022978D01*
X57254662Y-56812294D01*
X57257843Y-56780000D01*
X57257843Y-56581000D01*
X65000000Y-56581000D01*
X65044000Y-56576666D01*
X65044000Y-60394000D01*
X50906000Y-60394000D01*
X50906000Y-56823016D01*
X50922757Y-56854366D01*
X51000682Y-56949318D01*
X51095634Y-57027243D01*
X51203963Y-57085146D01*
X51321508Y-57120803D01*
X51443750Y-57132843D01*
X52356250Y-57132843D01*
X52478492Y-57120803D01*
X52519000Y-57108515D01*
X52519000Y-59100000D01*
X52526321Y-59174329D01*
X52548002Y-59245802D01*
X52583210Y-59311672D01*
X52630592Y-59369408D01*
X52688328Y-59416790D01*
X52754198Y-59451998D01*
X52825671Y-59473679D01*
X52900000Y-59481000D01*
X53879757Y-59481000D01*
X53899013Y-59577809D01*
X53957887Y-59719942D01*
X54043358Y-59847859D01*
X54152141Y-59956642D01*
X54280058Y-60042113D01*
X54422191Y-60100987D01*
X54573078Y-60131000D01*
X54726922Y-60131000D01*
X54877809Y-60100987D01*
X55019942Y-60042113D01*
X55147859Y-59956642D01*
X55256642Y-59847859D01*
X55342113Y-59719942D01*
X55400987Y-59577809D01*
X55431000Y-59426922D01*
X55431000Y-59273078D01*
X55400987Y-59122191D01*
X55342113Y-58980058D01*
X55256642Y-58852141D01*
X55181000Y-58776499D01*
X55181000Y-57101901D01*
X55187696Y-57098322D01*
X55245711Y-57050711D01*
X55293322Y-56992696D01*
X55328701Y-56926508D01*
X55350487Y-56854689D01*
X55357843Y-56780000D01*
X55357843Y-55881000D01*
X55842157Y-55881000D01*
X55842157Y-56780000D01*
G36*
X65044001Y-53723334D02*
G01*
X65000000Y-53719000D01*
X62281000Y-53719000D01*
X62281000Y-52131000D01*
X62470210Y-52131000D01*
X62474513Y-52174689D01*
X62496299Y-52246508D01*
X62531678Y-52312696D01*
X62579289Y-52370711D01*
X62637304Y-52418322D01*
X62703492Y-52453701D01*
X62775311Y-52475487D01*
X62850000Y-52482843D01*
X64550000Y-52482843D01*
X64624689Y-52475487D01*
X64696508Y-52453701D01*
X64762696Y-52418322D01*
X64820711Y-52370711D01*
X64868322Y-52312696D01*
X64903701Y-52246508D01*
X64925487Y-52174689D01*
X64932843Y-52100000D01*
X64932843Y-50400000D01*
X64925487Y-50325311D01*
X64903701Y-50253492D01*
X64868322Y-50187304D01*
X64820711Y-50129289D01*
X64762696Y-50081678D01*
X64696508Y-50046299D01*
X64624689Y-50024513D01*
X64550000Y-50017157D01*
X62850000Y-50017157D01*
X62775311Y-50024513D01*
X62703492Y-50046299D01*
X62637304Y-50081678D01*
X62579289Y-50129289D01*
X62531678Y-50187304D01*
X62496299Y-50253492D01*
X62474513Y-50325311D01*
X62470210Y-50369000D01*
X56580770Y-50369000D01*
X56537500Y-50364738D01*
X56494230Y-50369000D01*
X56494227Y-50369000D01*
X56364794Y-50381748D01*
X56198725Y-50432125D01*
X56045674Y-50513932D01*
X55977522Y-50569863D01*
X55911525Y-50624025D01*
X55883939Y-50657640D01*
X55424422Y-51117157D01*
X55343750Y-51117157D01*
X55221508Y-51129197D01*
X55103963Y-51164854D01*
X55031000Y-51203853D01*
X55031000Y-51200000D01*
X55023679Y-51125671D01*
X55001998Y-51054198D01*
X54966790Y-50988328D01*
X54919408Y-50930592D01*
X54861672Y-50883210D01*
X54795802Y-50848002D01*
X54724329Y-50826321D01*
X54650000Y-50819000D01*
X52900000Y-50819000D01*
X52825671Y-50826321D01*
X52754198Y-50848002D01*
X52688328Y-50883210D01*
X52630592Y-50930592D01*
X52583210Y-50988328D01*
X52548002Y-51054198D01*
X52526321Y-51125671D01*
X52519000Y-51200000D01*
X52519000Y-52991485D01*
X52478492Y-52979197D01*
X52356250Y-52967157D01*
X51443750Y-52967157D01*
X51321508Y-52979197D01*
X51203963Y-53014854D01*
X51095634Y-53072757D01*
X51000682Y-53150682D01*
X50922757Y-53245634D01*
X50906000Y-53276984D01*
X50906000Y-49856000D01*
X65044001Y-49856000D01*
X65044001Y-53723334D01*
G37*
X65044001Y-53723334D02*
X65000000Y-53719000D01*
X62281000Y-53719000D01*
X62281000Y-52131000D01*
X62470210Y-52131000D01*
X62474513Y-52174689D01*
X62496299Y-52246508D01*
X62531678Y-52312696D01*
X62579289Y-52370711D01*
X62637304Y-52418322D01*
X62703492Y-52453701D01*
X62775311Y-52475487D01*
X62850000Y-52482843D01*
X64550000Y-52482843D01*
X64624689Y-52475487D01*
X64696508Y-52453701D01*
X64762696Y-52418322D01*
X64820711Y-52370711D01*
X64868322Y-52312696D01*
X64903701Y-52246508D01*
X64925487Y-52174689D01*
X64932843Y-52100000D01*
X64932843Y-50400000D01*
X64925487Y-50325311D01*
X64903701Y-50253492D01*
X64868322Y-50187304D01*
X64820711Y-50129289D01*
X64762696Y-50081678D01*
X64696508Y-50046299D01*
X64624689Y-50024513D01*
X64550000Y-50017157D01*
X62850000Y-50017157D01*
X62775311Y-50024513D01*
X62703492Y-50046299D01*
X62637304Y-50081678D01*
X62579289Y-50129289D01*
X62531678Y-50187304D01*
X62496299Y-50253492D01*
X62474513Y-50325311D01*
X62470210Y-50369000D01*
X56580770Y-50369000D01*
X56537500Y-50364738D01*
X56494230Y-50369000D01*
X56494227Y-50369000D01*
X56364794Y-50381748D01*
X56198725Y-50432125D01*
X56045674Y-50513932D01*
X55977522Y-50569863D01*
X55911525Y-50624025D01*
X55883939Y-50657640D01*
X55424422Y-51117157D01*
X55343750Y-51117157D01*
X55221508Y-51129197D01*
X55103963Y-51164854D01*
X55031000Y-51203853D01*
X55031000Y-51200000D01*
X55023679Y-51125671D01*
X55001998Y-51054198D01*
X54966790Y-50988328D01*
X54919408Y-50930592D01*
X54861672Y-50883210D01*
X54795802Y-50848002D01*
X54724329Y-50826321D01*
X54650000Y-50819000D01*
X52900000Y-50819000D01*
X52825671Y-50826321D01*
X52754198Y-50848002D01*
X52688328Y-50883210D01*
X52630592Y-50930592D01*
X52583210Y-50988328D01*
X52548002Y-51054198D01*
X52526321Y-51125671D01*
X52519000Y-51200000D01*
X52519000Y-52991485D01*
X52478492Y-52979197D01*
X52356250Y-52967157D01*
X51443750Y-52967157D01*
X51321508Y-52979197D01*
X51203963Y-53014854D01*
X51095634Y-53072757D01*
X51000682Y-53150682D01*
X50922757Y-53245634D01*
X50906000Y-53276984D01*
X50906000Y-49856000D01*
X65044001Y-49856000D01*
X65044001Y-53723334D01*
M02*
